<svg width="23" height="30" viewBox="0 0 23 30" fill="none" xmlns="http://www.w3.org/2000/svg">
<g id="notes">
<path id="Shape" fill-rule="evenodd" clip-rule="evenodd" d="M22.2277 7.052H19.6684V1.84575C19.6684 -0.54438 15.0075 -0.57613 15.0075 1.82866V7.05084H0.77079C0.402915 7.05084 0.105469 7.35114 0.105469 7.71978V29.2932C0.105469 29.6631 0.402924 29.9622 0.77079 29.9622H22.2276C22.5955 29.9622 22.8929 29.6631 22.8929 29.2932V7.71978C22.8929 7.34991 22.5943 7.05084 22.2276 7.05084L22.2277 7.052ZM16.3394 1.82871V4.85606L16.3382 4.85728L18.3476 4.85484L18.3378 1.8458C18.3378 1.23178 16.3394 1.21593 16.3394 1.82871ZM12.5525 13.8601C13.4279 13.8601 13.4279 15.1979 12.5525 15.1979H4.11089C3.23552 15.1979 3.23552 13.8601 4.11089 13.8601H12.5525ZM12.5525 19.1761C13.4279 19.1761 13.4279 17.8382 12.5525 17.8382H4.11089C3.23552 17.8382 3.23552 19.1761 4.11089 19.1761H12.5525ZM12.5525 21.8163C13.4279 21.8163 13.4279 23.1542 12.5525 23.1542H4.11089C3.23552 23.1542 3.23552 21.8163 4.11089 21.8163H12.5525ZM21.5624 8.38987H19.6684L19.6684 8.38875V20.8862C19.6684 20.9827 19.6489 21.0706 19.6113 21.1585L17.9565 25.3663C17.7331 25.9339 16.9378 25.9229 16.7193 25.3663L15.0645 21.1585C15.0305 21.0803 15.0074 20.99 15.0074 20.9046V8.38987H1.43617V28.6255H21.5624V8.38987ZM17.3385 23.3033L17.3379 23.3018L18.0245 21.5565H16.6514L17.3379 23.3018L17.3373 23.3033H17.3385ZM18.3377 20.2186V6.19518H16.3393V20.2186H18.3377Z" fill="white"/>
</g>
</svg>
